<?xml version="1.0" ?><!DOCTYPE svg  PUBLIC '-//W3C//DTD SVG 1.1//EN'  'http://www.w3.org/Graphics/SVG/1.1/DTD/svg11.dtd'><svg enable-background="new 0 0 512 512" height="512px" id="Layer_1" version="1.1" viewBox="0 0 512 512" width="512px" xml:space="preserve" xmlns="http://www.w3.org/2000/svg" xmlns:xlink="http://www.w3.org/1999/xlink"><g><path d="M256.108,3.652c-139.166,0-252,112.834-252,252c0,139.167,112.834,252,252,252s252-112.833,252-252   C508.108,116.486,395.274,3.652,256.108,3.652z M256.108,486.652c-127.374,0-231-103.626-231-231c0-127.373,103.626-231,231-231   s231,103.627,231,231C487.108,383.027,383.483,486.652,256.108,486.652z" fill="#37404D"/><polygon fill="#37404D" points="256.108,276.652 130.108,276.652 130.108,297.652 277.108,297.652 277.108,88.514 256.108,88.514     "/></g></svg>