<?xml version="1.0" ?><!DOCTYPE svg  PUBLIC '-//W3C//DTD SVG 1.1//EN'  'http://www.w3.org/Graphics/SVG/1.1/DTD/svg11.dtd'><svg enable-background="new 0 0 300 300" height="300px" id="Layer_1" version="1.1" viewBox="0 0 300 300" width="300px" xml:space="preserve" xmlns="http://www.w3.org/2000/svg" xmlns:xlink="http://www.w3.org/1999/xlink"><g><path d="M151.125,14.798c-74.557,0-135,60.441-135,134.998c0,74.56,60.443,135,135,135s135-60.439,135-135   C286.125,75.24,225.682,14.798,151.125,14.798z M151.125,265.706c-64.013,0-115.91-51.896-115.91-115.91   c0-64.013,51.897-115.908,115.91-115.908S267.03,85.784,267.03,149.796C267.03,213.81,215.138,265.706,151.125,265.706z" fill="#44B39B"/><path d="M255.557,149.796c0,57.676-46.756,104.431-104.436,104.431c-57.672,0-104.428-46.755-104.428-104.431   c0-57.674,46.755-104.427,104.428-104.427C208.801,45.369,255.557,92.122,255.557,149.796z" fill="#44B39B"/><g><polygon fill="#FFFFFF" points="225.16,104.812 151.329,158.952 77.086,104.812   "/><polygon fill="#FFFFFF" points="228.477,194.783 73.777,194.783 73.777,107.23 151.342,163.793 228.477,107.238 228.477,194.783       "/></g></g></svg>